<svg width="64" height="60" viewBox="0 0 64 60" fill="none" xmlns="http://www.w3.org/2000/svg">
<path fill-rule="evenodd" clip-rule="evenodd" d="M48.6544 18.1709C48.7265 18.219 48.7425 18.3071 48.7825 18.3791C48.9667 18.7956 49.1589 19.18 49.3512 19.6285C49.5434 20.077 49.8077 20.6377 50.0239 21.1422C50.112 21.3424 50.1761 21.5506 50.2562 21.7589C50.3013 21.8874 50.3231 22.0231 50.3202 22.1593C50.3265 22.1883 50.3265 22.2184 50.3202 22.2474C50.3202 22.2474 50.2802 22.2474 50.2722 22.2474C50.2308 22.2341 50.1926 22.2123 50.1601 22.1834L49.6875 21.7188L49.5594 21.5907C49.5594 21.5907 49.5193 21.5907 49.5033 21.5907C49.4966 21.6088 49.4966 21.6286 49.5033 21.6467C49.4955 21.6756 49.4955 21.706 49.5033 21.7349C49.5594 22.1113 49.6235 22.4796 49.6795 22.8481L49.8958 24.2656C49.9679 24.7542 50.0479 25.2347 50.12 25.7233C50.1761 26.0917 50.2241 26.4601 50.2802 26.8285C50.3363 27.1969 50.3843 27.5092 50.4244 27.8536C50.4644 28.198 50.5365 28.6545 50.5845 29.0309C50.5845 29.2952 50.6566 29.5675 50.6887 29.8318C50.7207 30.0961 50.7447 30.3124 50.7687 30.5446C50.8248 31.2414 50.8969 31.9382 50.9209 32.6349C50.9209 33.0274 50.961 33.4358 50.9209 33.8202C50.9157 34.332 50.8783 34.8429 50.8088 35.35C50.7542 35.763 50.6631 36.1703 50.5365 36.5673C50.5365 36.6714 50.4484 36.7755 50.4083 36.8876L50.3443 36.9597C50.3375 36.9668 50.3295 36.9724 50.3205 36.9762C50.3116 36.98 50.3019 36.9819 50.2922 36.9819C50.2825 36.9819 50.2729 36.98 50.2639 36.9762C50.255 36.9724 50.2469 36.9668 50.2402 36.9597C50.2211 36.9247 50.2076 36.8868 50.2001 36.8476C50.2001 36.7595 50.2001 36.6794 50.2001 36.5913C50.2001 35.7424 50.1601 34.8854 50.088 34.0365C50.0399 33.3798 49.9759 32.723 49.9038 32.0743C49.8557 31.6098 49.8157 31.1453 49.7596 30.6727C49.7036 30.2002 49.6155 29.5435 49.5354 28.9749C49.4553 28.4062 49.3992 27.9177 49.3191 27.3731C49.2791 27.0367 49.223 26.7084 49.183 26.38L49.0148 25.2027C48.9427 24.6901 48.8706 24.1775 48.7905 23.657C48.7105 23.1364 48.6544 22.7119 48.5823 22.2394C48.4942 21.6388 48.4141 21.0461 48.318 20.4454C48.295 20.2482 48.2265 20.059 48.1178 19.8928C48.0982 19.8558 48.0879 19.8146 48.0879 19.7727C48.0879 19.7308 48.0982 19.6895 48.1178 19.6525C48.2219 19.3482 48.326 19.0439 48.4382 18.7395L48.6063 18.275C48.605 18.255 48.6087 18.235 48.6171 18.2168C48.6255 18.1987 48.6383 18.1829 48.6544 18.1709Z" fill="#A87C2D"/>
<path fill-rule="evenodd" clip-rule="evenodd" d="M42.5731 37.5763C42.1326 37.7285 41.6841 37.8646 41.2356 37.9848C40.5789 38.1609 39.9141 38.2971 39.2494 38.4092C38.5278 38.5213 37.8005 38.5935 37.071 38.6255C36.3109 38.6735 35.5485 38.6735 34.7884 38.6255L33.6992 38.5453C33.3548 38.5053 33.0185 38.4733 32.6821 38.4012C32.5601 38.3817 32.4357 38.3817 32.3137 38.4012C32.2282 38.4815 32.1576 38.5764 32.1055 38.6815C31.9773 38.8737 31.8652 39.0739 31.737 39.2662C31.6089 39.4584 31.5929 39.4744 31.5208 39.5705C31.4895 39.599 31.4544 39.6232 31.4167 39.6425C31.402 39.6474 31.3864 39.6492 31.371 39.6477C31.3556 39.6463 31.3406 39.6417 31.3271 39.6341C31.3135 39.6266 31.3017 39.6164 31.2923 39.604C31.2829 39.5917 31.2762 39.5775 31.2726 39.5625C31.258 39.4488 31.2718 39.3332 31.3126 39.2261C31.3862 39.0106 31.4718 38.7994 31.5689 38.5934L31.705 38.3131C31.705 38.3131 31.705 38.241 31.705 38.233L31.4567 38.0648C31.1282 37.9307 30.8164 37.7586 30.5277 37.5522C29.8272 37.0328 29.3154 36.2988 29.0701 35.4619C28.9299 35.0345 28.8175 34.5984 28.7337 34.1565C28.7359 34.1191 28.7359 34.0817 28.7337 34.0443C28.7062 34.1098 28.6821 34.1766 28.6617 34.2446C28.5736 34.4848 28.5015 34.7171 28.4134 34.9574C28.3809 35.0422 28.3434 35.1251 28.3012 35.2056C28.1128 35.6092 27.7901 35.9347 27.3882 36.1267L27.164 36.2308L27.0679 36.3029C27.0466 36.4596 27.0332 36.6173 27.0278 36.7754C27.0132 37.0857 26.9704 37.3939 26.8997 37.6964C26.8311 38.0236 26.7291 38.343 26.5954 38.6495C26.4818 38.9177 26.3188 39.1623 26.1148 39.3703C25.8382 39.6524 25.5468 39.9198 25.2419 40.1712C24.7373 40.5636 24.2327 40.9721 23.6881 41.2844C22.8207 41.8402 21.9038 42.3147 20.9491 42.7019C20.3382 42.9471 19.7014 43.1217 19.051 43.2225C18.2779 43.3485 17.4863 43.2965 16.7364 43.0704C15.7203 42.7766 14.8585 42.0987 14.3338 41.1803C14.027 40.6455 13.8309 40.0544 13.7571 39.4423C13.6501 38.6015 13.7044 37.748 13.9173 36.9276C13.9894 36.6312 14.0775 36.3269 14.1816 36.0306C14.1816 35.9585 14.2297 35.8784 14.2617 35.7983L14.1976 35.7262C14.0453 35.6053 13.9217 35.452 13.8358 35.2775C13.75 35.103 13.704 34.9116 13.7011 34.7171C13.681 34.4148 13.7135 34.1113 13.7972 33.8201C13.9049 33.4502 14.0332 33.0865 14.1816 32.7309C14.3418 32.3225 14.518 31.93 14.6942 31.5216C14.8704 31.1131 14.9745 30.8728 15.1186 30.5445C15.1231 30.519 15.1334 30.495 15.1487 30.4741C15.164 30.4533 15.1838 30.4363 15.2068 30.4244C15.2068 30.4244 15.2468 30.4244 15.2548 30.4244C15.2591 30.4331 15.2613 30.4427 15.2613 30.4524C15.2613 30.4621 15.2591 30.4717 15.2548 30.4804C15.2586 30.6367 15.2425 30.7928 15.2068 30.9449C15.1427 31.1291 15.0866 31.3213 15.0225 31.5055L14.566 32.6348C14.4667 32.8764 14.3864 33.1255 14.3257 33.3796C14.2554 33.642 14.2554 33.9182 14.3257 34.1805C14.3587 34.2743 14.4106 34.3603 14.4781 34.4333C14.5456 34.5063 14.6273 34.5647 14.7182 34.605C14.7898 34.6164 14.8628 34.6164 14.9344 34.605C14.9864 34.6078 15.038 34.5948 15.0823 34.5676C15.1266 34.5404 15.1616 34.5004 15.1827 34.4528C15.2308 34.3487 15.2708 34.2366 15.3188 34.1325L15.463 33.8201L15.5271 33.756C15.5271 33.756 15.5271 33.756 15.5831 33.756C15.5872 33.82 15.5872 33.8842 15.5831 33.9482C15.5087 34.3467 15.3708 34.7308 15.1747 35.0855C15.1091 35.1934 15.0341 35.2952 14.9505 35.3898C14.8302 35.5396 14.6687 35.651 14.4859 35.7102C14.4859 35.7503 14.4379 35.7983 14.4218 35.8463C14.2331 36.4635 14.1465 37.1074 14.1656 37.7525C14.1777 38.2761 14.2807 38.7937 14.4699 39.2822C14.5838 39.5676 14.7346 39.8368 14.9184 40.0831C15.0615 40.2769 15.2314 40.4495 15.423 40.5956C16.0938 41.1332 16.9121 41.4544 17.7696 41.5166C18.4363 41.561 19.106 41.5043 19.7558 41.3484C20.4355 41.1855 21.0979 40.9575 21.734 40.6677C23.2369 39.9899 24.6363 39.1028 25.8906 38.0328C26.0507 37.8967 26.1949 37.7525 26.3471 37.6083C26.3719 37.5889 26.3905 37.5626 26.4005 37.5327C26.4105 37.5028 26.4114 37.4705 26.4031 37.4401C26.3589 37.1411 26.2727 36.85 26.1469 36.5752C26.1378 36.5501 26.1194 36.5295 26.0956 36.5176C26.0717 36.5057 26.0442 36.5033 26.0187 36.5111L25.4101 36.6472C25.0731 36.7186 24.7294 36.7535 24.3849 36.7514C24.1147 36.7421 23.8463 36.7045 23.584 36.6392L23.2316 36.5111C23.0763 36.4487 22.9352 36.3555 22.8168 36.2371C22.6985 36.1187 22.6053 35.9777 22.5429 35.8223C22.4694 35.649 22.4235 35.4653 22.4067 35.2777C22.3629 34.5619 22.6015 33.8574 23.0715 33.3156C23.2726 33.0756 23.5137 32.8724 23.7842 32.7149L23.9524 32.6268C24.0887 32.5615 24.2378 32.5275 24.3889 32.5275C24.54 32.5275 24.6891 32.5615 24.8254 32.6268C25.0453 32.7224 25.2503 32.8492 25.4341 33.0032C25.9059 33.3864 26.2816 33.8746 26.5313 34.4288L26.6034 34.597C26.6155 34.6212 26.6359 34.6402 26.661 34.6505C26.686 34.6608 26.7139 34.6617 26.7395 34.653C27.1117 34.555 27.4659 34.3981 27.7887 34.1885C27.9977 34.0487 28.1685 33.8587 28.2852 33.6359C28.3279 33.5506 28.3551 33.4584 28.3653 33.3636C28.3895 33.1266 28.3895 32.8878 28.3653 32.6508C28.3173 32.1062 28.2852 31.5696 28.2452 31.049C28.2051 30.5285 28.1731 29.9839 28.1251 29.4473C28.077 28.9107 28.021 28.4702 27.9649 27.9896C27.9088 27.5091 27.8688 27.0767 27.8127 26.6202C27.7567 26.1636 27.7086 25.7552 27.6525 25.3147L27.5084 24.0733C27.4603 23.6809 27.4123 23.2724 27.3562 22.896C27.3001 22.5196 27.2521 22.0951 27.204 21.7507C27.204 21.5025 27.132 21.2542 27.0999 21.0059C27.084 20.9347 27.084 20.8609 27.0999 20.7897C27.156 20.6375 27.196 20.4773 27.2441 20.3172C27.3562 19.9568 27.4603 19.5963 27.5725 19.2359C27.5769 19.2105 27.5872 19.1864 27.6025 19.1656C27.6178 19.1448 27.6376 19.1277 27.6605 19.1158C27.7018 19.1475 27.7302 19.193 27.7406 19.244C27.8287 19.5563 27.9248 19.8606 27.9969 20.181C28.1571 20.8297 28.2772 21.4784 28.3813 22.1351C28.4854 22.7919 28.5816 23.3925 28.6697 24.0252C28.7578 24.6579 28.8138 25.1785 28.8859 25.7632C28.9419 26.2037 28.998 26.6522 29.0461 27.0926C29.0461 27.397 29.0942 27.6933 29.1262 27.9977C29.1582 28.302 29.1902 28.7265 29.2303 29.0869L29.3024 29.8877C29.3024 30.2241 29.3504 30.5525 29.3824 30.8888L29.5506 32.5627C29.5506 32.803 29.5907 33.0433 29.6307 33.2835C29.6788 33.7069 29.7839 34.1217 29.9431 34.5169C30.1182 34.9372 30.381 35.3153 30.7138 35.626C31.0467 35.9367 31.4419 36.1729 31.8732 36.3189L32.4739 36.4871C32.515 36.4972 32.5581 36.4949 32.598 36.4807C32.6379 36.4665 32.6727 36.4408 32.6981 36.407C32.7462 36.3429 32.8022 36.2788 32.8503 36.2068L33.507 35.2937C33.6803 35.0584 33.7906 34.7828 33.8274 34.4928C33.8616 34.2675 33.8804 34.04 33.8835 33.8121C33.9035 33.2377 33.8874 32.6626 33.8354 32.0902C33.7873 31.5296 33.7393 30.969 33.6832 30.4083C33.6272 29.8477 33.5791 29.5194 33.5311 29.0789C33.5311 28.8546 33.475 28.6384 33.451 28.4221C33.3949 27.9496 33.3308 27.4771 33.2748 26.9965C33.2187 26.516 33.1787 26.1476 33.1306 25.7232L32.9624 24.2976C32.9144 23.8811 31.9453 16.4809 31.8892 16.0724C31.8171 15.5118 31.7371 14.9512 31.665 14.3986C31.6688 14.3667 31.6688 14.3344 31.665 14.3025C31.6587 14.0164 31.5697 13.7382 31.4087 13.5016C31.4199 13.4495 31.436 13.3985 31.4567 13.3494L31.9373 12.06C31.9581 12.013 31.9822 11.9675 32.0094 11.9238H32.0654C32.0994 11.9615 32.1265 12.0049 32.1455 12.052C32.2656 12.3243 32.3778 12.5886 32.4979 12.8529C32.7702 13.5016 33.0505 14.1343 33.2988 14.775C33.3869 14.9912 33.459 15.2075 33.539 15.4237C33.6191 15.6399 33.5951 15.664 33.6192 15.7921C33.6272 15.8533 33.6272 15.9152 33.6192 15.9763C33.6047 15.9887 33.5862 15.9956 33.5671 15.9956C33.548 15.9956 33.5295 15.9887 33.515 15.9763C33.4741 15.9487 33.4365 15.9164 33.4029 15.8802L32.9785 15.3757C32.9422 15.3368 32.9019 15.3019 32.8583 15.2715H32.8022V15.3196C32.7983 15.3595 32.7983 15.3998 32.8022 15.4397L33.0185 16.9614C33.0665 17.3218 34.0276 24.6659 34.0837 25.0263C34.1397 25.3867 34.1798 25.8273 34.2518 26.1717C34.2518 26.3238 34.2519 26.484 34.3159 26.6361C34.364 27.0686 34.42 27.5011 34.4681 27.9416C34.5161 28.3821 34.5882 28.8466 34.6283 29.3031C34.7003 30.0617 34.7323 30.8236 34.7244 31.5856C34.7244 31.7698 34.7244 31.962 34.7244 32.1462C34.7096 32.7 34.6507 33.2517 34.5482 33.7961C34.5279 33.8667 34.5279 33.9417 34.5482 34.0123C34.6363 34.0123 34.6763 33.9082 34.7324 33.8441C35.0207 33.5158 35.317 33.1954 35.6294 32.8911C36.0262 32.4913 36.4547 32.1243 36.9108 31.7939C37.2508 31.5521 37.6127 31.343 37.992 31.1692C38.3438 31.0123 38.7118 30.8941 39.0892 30.8168C39.5966 30.7299 40.117 30.76 40.6109 30.9049C41.1984 31.0475 41.746 31.3213 42.2127 31.7058C42.432 31.8824 42.6213 32.0934 42.7733 32.3305C42.9164 32.5374 43.0146 32.772 43.0616 33.0192C43.1058 33.2008 43.1058 33.3903 43.0616 33.5719C43.045 33.6531 43.0236 33.7334 42.9975 33.8121C42.8313 34.3073 42.6111 34.7827 42.3408 35.2297C42.0778 35.683 41.7166 36.0716 41.2837 36.3669C41.2822 36.3829 41.2822 36.399 41.2837 36.415C41.3756 36.4069 41.4667 36.3908 41.5559 36.3669C41.8763 36.2869 42.1966 36.1908 42.509 36.0786L42.8935 35.9424C43.0135 35.9117 43.1292 35.866 43.2378 35.8063C43.35 35.7342 43.9346 35.542 43.9666 35.526L45.6164 34.8372L45.6966 34.7972C45.7139 34.7845 45.7274 34.7674 45.7359 34.7477C45.7443 34.728 45.7473 34.7064 45.7446 34.6851C45.7446 34.597 45.7446 34.5009 45.7446 34.4048C45.6325 33.684 45.5123 32.9632 45.4002 32.2504L45.256 31.1932C45.2 30.8328 45.1439 30.4724 45.0959 30.112C45.0478 29.7516 44.9918 29.3912 44.9437 29.0308L44.7755 27.7894C44.7275 27.405 44.6794 27.0286 44.6234 26.6442C44.5673 26.2597 44.5192 25.8433 44.4632 25.4669L44.319 24.3216C44.271 23.9051 44.2229 23.5207 44.1668 23.0802C44.1668 22.7919 44.1028 22.5036 44.0627 22.2073C44.0067 21.7107 43.9426 21.2141 43.8785 20.7256C43.8591 20.5883 43.8157 20.4555 43.7504 20.3332L43.6623 20.173C43.6736 20.1104 43.6896 20.0489 43.7103 19.9888C43.8785 19.5643 44.0387 19.1318 44.2069 18.7074C44.2235 18.67 44.245 18.6349 44.271 18.6033C44.3005 18.6441 44.3272 18.6869 44.351 18.7314L44.7114 19.5963C44.9757 20.213 45.232 20.8217 45.5123 21.4384C45.5924 21.6466 45.6645 21.8549 45.7366 22.0551C45.7717 22.1541 45.7985 22.2559 45.8167 22.3594C45.8249 22.4527 45.8249 22.5465 45.8167 22.6397C45.8236 22.6632 45.8236 22.6883 45.8167 22.7118C45.8167 22.7118 45.7286 22.7118 45.7045 22.7118C45.6578 22.6704 45.6149 22.6248 45.5764 22.5756L45.216 22.1432L45.1039 22.031H45.0478V22.0951L45.192 23.1443C45.192 23.3525 45.24 23.5608 45.2721 23.769C45.3361 24.3136 45.4002 24.8662 45.4803 25.4108C45.5684 26.0835 45.6725 26.7483 45.7606 27.421C45.8487 28.0938 45.9448 28.7425 46.0409 29.3992C46.137 30.0559 46.2251 30.5925 46.3212 31.1932C46.4173 31.7939 46.4974 32.3064 46.5936 32.8591C46.6524 33.2614 46.7353 33.6599 46.8418 34.0524C46.8418 34.1084 46.8418 34.1645 46.8979 34.2286C46.8996 34.2391 46.9036 34.2491 46.9096 34.2578C46.9156 34.2666 46.9235 34.2739 46.9327 34.2793C46.9419 34.2846 46.9522 34.2879 46.9628 34.2888C46.9734 34.2897 46.984 34.2883 46.994 34.2847L47.2343 34.2206C47.4548 34.1638 47.6799 34.1263 47.907 34.1084C48.1782 34.0903 48.4503 34.1257 48.7079 34.2126C48.9021 34.2823 49.0765 34.3982 49.216 34.5502C49.3556 34.7023 49.456 34.886 49.5087 35.0855C49.5509 35.2373 49.5778 35.3929 49.5889 35.55C49.623 36.0078 49.5796 36.4681 49.4607 36.9115C49.4059 37.1566 49.3024 37.388 49.1564 37.5923C49.0069 37.7969 48.7874 37.9394 48.5397 37.9927C48.415 38.0128 48.2879 38.0128 48.1633 37.9927C47.7905 37.929 47.4418 37.7658 47.1541 37.5202C46.9158 37.3192 46.708 37.0845 46.5375 36.8235C46.4254 36.6393 46.3212 36.439 46.2171 36.2548C46.2171 36.1987 46.169 36.1347 46.105 36.0946H45.9929C45.1119 36.415 44.255 36.7914 43.382 37.1358M34.2759 36.5031C34.7164 36.5031 35.1568 36.447 35.5893 36.399C36.0218 36.3509 36.6225 36.2709 37.1351 36.1828C38.0588 36.0185 38.969 35.7856 39.8581 35.486C40.3799 35.309 40.8885 35.0949 41.3798 34.8452C41.6631 34.7173 41.9316 34.5588 42.1807 34.3727C42.2137 34.3504 42.2434 34.3234 42.2687 34.2926C42.2801 34.2747 42.2862 34.2539 42.2862 34.2326C42.2862 34.2113 42.2801 34.1905 42.2687 34.1725C42.2361 34.1083 42.1986 34.0467 42.1566 33.9883C42.072 33.8691 41.9783 33.7567 41.8763 33.6519C41.4171 33.1896 40.8733 32.8198 40.2745 32.5627C40.0018 32.4569 39.7164 32.3869 39.4256 32.3545C38.8655 32.2877 38.2977 32.3649 37.7758 32.5788C37.2467 32.8004 36.7507 33.0942 36.3021 33.4517C35.9283 33.7535 35.5726 34.0771 35.2369 34.4208C34.6617 35.0372 34.1266 35.6899 33.6351 36.375C33.631 36.3934 33.631 36.4126 33.6351 36.431C33.6307 36.4467 33.6307 36.4634 33.6351 36.4791H33.7553L34.2759 36.5031ZM25.3059 34.9013C25.314 34.8807 25.314 34.8578 25.3059 34.8372C25.0674 34.4907 24.702 34.2519 24.2888 34.1725C24.1394 34.1431 23.9847 34.1568 23.8429 34.2121C23.701 34.2674 23.5779 34.3621 23.4879 34.4849C23.4434 34.5311 23.4185 34.5928 23.4185 34.657C23.4185 34.7213 23.4434 34.783 23.4879 34.8293C23.5509 34.882 23.6247 34.9203 23.7042 34.9413C23.8431 34.9899 23.9894 35.0143 24.1366 35.0134H24.8814C25.0002 35.0403 25.1206 35.059 25.2419 35.0695L25.3059 34.9013ZM47.3304 35.7022C47.3248 35.734 47.3248 35.7665 47.3304 35.7983C47.4289 35.9437 47.5572 36.0666 47.7067 36.1587C47.9026 36.2865 48.1263 36.3655 48.359 36.3892C48.5917 36.4129 48.8266 36.3805 49.0443 36.2948C49.0712 36.2802 49.0955 36.2613 49.1163 36.2388C49.1212 36.2303 49.1238 36.2206 49.1238 36.2108C49.1238 36.2009 49.1212 36.1913 49.1163 36.1828C49.1241 36.1539 49.1241 36.1235 49.1163 36.0946C49.0244 35.9632 48.9054 35.853 48.7672 35.7715C48.629 35.6899 48.475 35.639 48.3154 35.6221H48.0351C47.7662 35.6434 47.5045 35.7197 47.2663 35.8463L47.3304 35.7022Z" fill="#A87C2D"/>
<path d="M63.5504 15.312V49.6861L58.3206 49.1255C57.4377 49.0271 56.55 48.979 55.6617 48.9813C48.2855 48.9813 39.2915 51.9366 35.199 55.7008L31.9954 58.6801L28.7518 55.7008C24.6513 51.9366 15.6653 48.9813 8.28913 48.9813C7.4008 48.979 6.51306 49.0271 5.63019 49.1255L0.400391 49.6861V15.312" stroke="#A89479" stroke-width="0.800888" stroke-miterlimit="10"/>
<path d="M5.06152 10.9551V44.5924C5.06152 44.5924 20.1503 42.8224 31.9553 52.393C43.7604 42.8224 58.8492 44.5924 58.8492 44.5924V10.9551" stroke="#A89479" stroke-width="0.800888" stroke-miterlimit="10"/>
<path d="M61.1959 13.1172V47.1309L58.585 46.8506C57.6141 46.7459 56.6382 46.6951 55.6617 46.6984C47.6529 46.6984 38.1303 49.8539 33.5733 54.0345L31.9715 55.5242L30.3697 54.0345C25.8126 49.8539 16.3221 46.6984 8.28121 46.6984C7.30473 46.6951 6.32881 46.7459 5.35796 46.8506L2.74707 47.1309V13.1172" stroke="#A89479" stroke-width="0.800888" stroke-miterlimit="10"/>
<path d="M30.8502 5.9332C28.9681 3.90695 25.9487 4.97216 22.4568 6.20552C20.2144 7.00641 17.7957 7.85535 15.4811 7.85535C13.7216 7.90341 12.0077 7.29211 10.6758 6.14144" stroke="#A89479" stroke-width="0.800888" stroke-miterlimit="10"/>
<path d="M33.0605 5.9332C34.9426 3.90695 37.962 4.97216 41.4538 6.20552C43.6963 7.00641 46.115 7.85535 48.4296 7.85535C50.1891 7.90341 51.903 7.29211 53.2349 6.14144" stroke="#A89479" stroke-width="0.800888" stroke-miterlimit="10"/>
<path d="M52.2183 4.99645C49.4072 7.39912 45.619 6.07764 41.9509 4.78821C38.2828 3.49878 34.5187 2.15331 31.9558 4.90837C29.393 2.15331 25.6128 3.49077 21.9527 4.78821C18.2927 6.08565 14.5045 7.42314 11.6934 4.99645" stroke="#A89479" stroke-width="0.800888" stroke-miterlimit="10"/>
<path d="M11.3962 4.79622C11.3962 5.01957 11.33 5.23792 11.2059 5.42363C11.0818 5.60933 10.9054 5.75405 10.6991 5.83952C10.4927 5.92499 10.2657 5.94737 10.0466 5.9038C9.82759 5.86023 9.62637 5.75264 9.46844 5.59472C9.31051 5.43679 9.20297 5.23559 9.1594 5.01654C9.11582 4.79748 9.13818 4.57045 9.22365 4.3641C9.30912 4.15776 9.45386 3.98137 9.63957 3.85729C9.82527 3.73321 10.0436 3.66699 10.2669 3.66699C10.5664 3.66699 10.8537 3.78595 11.0655 3.99773C11.2772 4.20951 11.3962 4.49673 11.3962 4.79622Z" stroke="#A89479" stroke-width="0.800888" stroke-miterlimit="10"/>
<path d="M54.7722 4.79622C54.7722 5.01957 54.7059 5.23792 54.5819 5.42363C54.4578 5.60933 54.2814 5.75405 54.0751 5.83952C53.8687 5.92499 53.6417 5.94737 53.4226 5.9038C53.2036 5.86023 53.0023 5.75264 52.8444 5.59472C52.6865 5.43679 52.5789 5.23559 52.5354 5.01654C52.4918 4.79748 52.5142 4.57045 52.5996 4.3641C52.6851 4.15776 52.8298 3.98137 53.0155 3.85729C53.2012 3.73321 53.4196 3.66699 53.6429 3.66699C53.9424 3.66699 54.2297 3.78595 54.4414 3.99773C54.6532 4.20951 54.7722 4.49673 54.7722 4.79622Z" stroke="#A89479" stroke-width="0.800888" stroke-miterlimit="10"/>
<path d="M33.7575 3.57081L31.9555 0.743652L30.1455 3.57081" stroke="#A89479" stroke-width="0.800888" stroke-miterlimit="10"/>
<path d="M29.4883 7.71924H34.4137" stroke="#A89479" stroke-width="0.800888" stroke-miterlimit="10"/>
<path d="M29.4883 9.31299H34.4137" stroke="#A89479" stroke-width="0.800888" stroke-miterlimit="10"/>
<path fill-rule="evenodd" clip-rule="evenodd" d="M17.3233 25.9316C17.3233 25.9316 17.3233 25.8595 17.3233 25.8435C17.1881 25.697 17.0125 25.5939 16.8188 25.5471C16.7523 25.53 16.6823 25.5322 16.617 25.5535C16.5518 25.5747 16.4939 25.6142 16.4503 25.6673C16.3943 25.7393 16.3462 25.8274 16.2902 25.8995C16.2655 25.9452 16.2359 25.9882 16.2021 26.0277C16.2021 26.0277 16.2021 26.0277 16.146 26.0277C16.0899 26.0277 16.146 26.0276 16.146 25.9556C16.1426 25.8942 16.1426 25.8327 16.146 25.7714C16.23 25.4048 16.4193 25.0708 16.6906 24.8103C16.7147 24.7887 16.7321 24.7606 16.7406 24.7293C16.7492 24.698 16.7485 24.665 16.7387 24.6341C16.5965 24.07 16.409 23.5183 16.178 22.9843C16.1112 22.8413 16.0364 22.7023 15.9538 22.5678C15.9538 22.5198 15.8977 22.4477 15.8257 22.4477C15.7536 22.4477 15.7456 22.5038 15.7055 22.5358C15.6897 22.5488 15.6699 22.5559 15.6495 22.5559C15.629 22.5559 15.6092 22.5488 15.5934 22.5358L15.3611 22.3836L14.8085 22.0312C14.786 22.0164 14.7676 21.9962 14.755 21.9724C14.7425 21.9486 14.7361 21.922 14.7364 21.8951C14.7336 21.6559 14.78 21.4188 14.8726 21.1983C14.8944 21.1386 14.9377 21.0892 14.9939 21.0596C15.0501 21.03 15.1154 21.0224 15.1769 21.0381C15.3628 21.0724 15.5382 21.1491 15.6895 21.2624C15.8937 21.4094 16.0677 21.5943 16.2021 21.807C16.2974 21.9547 16.3805 22.1101 16.4503 22.2715C16.624 22.6736 16.7659 23.0886 16.8748 23.5129C16.885 23.574 16.9039 23.6333 16.9309 23.6891C16.9309 23.6891 16.9309 23.6891 16.9869 23.6891C16.9869 23.5609 17.035 23.4408 17.051 23.3126C17.0991 22.9442 17.1391 22.5758 17.1872 22.1994C17.2246 21.8986 17.2862 21.6013 17.3714 21.3104C17.4383 21.1124 17.5355 20.926 17.6597 20.7578C17.7384 20.6496 17.8395 20.5594 17.956 20.4935C18.0028 20.4683 18.0551 20.4551 18.1082 20.4551C18.1613 20.4551 18.2136 20.4683 18.2604 20.4935C18.3083 20.5156 18.3539 20.5425 18.3965 20.5736C18.559 20.7032 18.6973 20.8604 18.805 21.0381C18.8288 21.1055 18.8288 21.179 18.805 21.2463L18.6848 21.7349C18.6803 21.7472 18.6721 21.7578 18.6613 21.7652C18.6506 21.7727 18.6378 21.7767 18.6248 21.7767C18.6117 21.7767 18.5989 21.7727 18.5882 21.7652C18.5774 21.7578 18.5692 21.7472 18.5647 21.7349L18.4526 21.7189C18.4034 21.6564 18.3499 21.5976 18.2924 21.5427C18.2392 21.4905 18.1801 21.4448 18.1162 21.4065C18.0542 21.3652 17.9791 21.3481 17.9053 21.3585C17.8315 21.3688 17.7641 21.4058 17.7158 21.4626C17.6394 21.5468 17.5797 21.6446 17.5396 21.7509C17.5082 21.8286 17.4841 21.9091 17.4675 21.9912C17.4194 22.2074 17.3794 22.4237 17.3393 22.6399C17.2993 22.8562 17.2913 23.0964 17.2592 23.3207C17.2272 23.5449 17.1792 23.8733 17.1311 24.1215C17.1311 24.2417 17.059 24.3618 17.027 24.482C16.995 24.6021 16.9709 24.5941 16.9869 24.6581C16.9981 24.6762 17.0133 24.6914 17.0314 24.7025C17.0495 24.7136 17.0699 24.7204 17.0911 24.7222C17.3416 24.8309 17.5676 24.9889 17.7558 25.1867C17.9019 25.3367 18.0333 25.5003 18.1482 25.6753C18.1699 25.7049 18.1853 25.7387 18.1935 25.7745C18.2018 25.8102 18.2027 25.8474 18.1963 25.8835C18.1482 26.0837 18.0922 26.284 18.0361 26.4842C18.0308 26.5104 18.0169 26.5341 17.9966 26.5515C17.9762 26.5689 17.9507 26.579 17.924 26.5803C17.614 26.6092 17.3079 26.6709 17.011 26.7645L16.4824 26.9567C16.372 27.0115 16.265 27.0731 16.162 27.1409C16.0099 27.245 16.0259 27.277 16.0819 27.4052C16.138 27.5333 16.2341 27.7416 16.3142 27.9177C16.7923 28.9824 17.1496 30.0972 17.3794 31.2415C17.5115 31.8843 17.5759 32.5393 17.5716 33.1956C17.5675 33.4637 17.5461 33.7312 17.5075 33.9965C17.4935 34.0671 17.4748 34.1367 17.4515 34.2047H17.4114C17.4114 34.0286 17.4114 33.8523 17.3714 33.6761C17.3432 33.1028 17.271 32.5325 17.1551 31.9702C16.9803 31.038 16.7119 30.1257 16.3542 29.2472L16.0099 28.4464C15.9378 28.2702 15.8737 28.0939 15.8096 27.9177C15.7251 27.6372 15.7306 27.3372 15.8254 27.0599C15.9203 26.7827 16.0996 26.5421 16.3382 26.372C16.5395 26.2393 16.7577 26.1343 16.9869 26.0597L17.3233 25.9316Z" fill="#A87C2D"/>
<path fill-rule="evenodd" clip-rule="evenodd" d="M21.6557 27.4214L21.872 27.5576L22.9451 28.3584L23.1534 28.4946C23.1982 28.4479 23.2385 28.397 23.2735 28.3425L23.8261 27.5416C23.8742 27.4855 23.9142 27.4214 23.9543 27.3654C23.97 27.3523 23.9899 27.3452 24.0103 27.3452C24.0308 27.3452 24.0506 27.3523 24.0664 27.3654C24.1225 27.3926 24.1761 27.4248 24.2266 27.4615L25.476 28.3425C25.5325 28.3762 25.5772 28.4265 25.6041 28.4866L25.532 28.6147L24.8352 29.6158L24.7551 29.712C24.7402 29.7266 24.7201 29.7349 24.6991 29.7349C24.6781 29.7349 24.658 29.7266 24.643 29.712L24.4908 29.6078L23.4257 28.847L23.2255 28.7108C23.1948 28.7233 23.167 28.7418 23.1436 28.7652C23.1203 28.7886 23.1018 28.8164 23.0893 28.847L22.4806 29.72C22.4472 29.7708 22.4068 29.8167 22.3605 29.8561C22.3605 29.8561 22.3605 29.8561 22.3044 29.8561H22.2243L20.8548 28.815C20.8221 28.7917 20.7948 28.7616 20.7747 28.7269C20.7665 28.6981 20.7665 28.6676 20.7747 28.6388C20.7716 28.6202 20.7716 28.6013 20.7747 28.5827C21.023 28.2223 21.2713 27.8619 21.5276 27.5095C21.5632 27.471 21.607 27.4409 21.6557 27.4214Z" fill="#A87C2D"/>
<path fill-rule="evenodd" clip-rule="evenodd" d="M37.9621 18.5952H38.6589C38.7854 18.6061 38.9111 18.6248 39.0353 18.6513C39.058 18.6569 39.0794 18.667 39.0982 18.6809C39.117 18.6949 39.1328 18.7124 39.1447 18.7325C39.1567 18.7527 39.1645 18.775 39.1677 18.7982C39.1709 18.8214 39.1695 18.8449 39.1635 18.8675C39.1416 18.9465 39.1149 19.0241 39.0834 19.0998C38.846 19.6445 38.5563 20.1648 38.2184 20.6535C38.2199 20.6722 38.2199 20.6909 38.2184 20.7096C38.0333 20.9907 37.7461 21.1889 37.4175 21.2622L35.9279 21.5745C35.8463 21.5946 35.7612 21.5946 35.6796 21.5745C35.6796 21.5745 35.6796 21.5746 35.6796 21.5345C35.6796 21.4945 35.6796 21.4864 35.6796 21.4784C35.7121 21.4379 35.7531 21.4051 35.7997 21.3823L36.5125 20.9979C36.959 20.7748 37.3922 20.5261 37.81 20.2531C37.8428 20.2305 37.8725 20.2035 37.8981 20.173C37.7544 20.157 37.6093 20.157 37.4656 20.173C37.1613 20.173 36.8649 20.173 36.5606 20.2611L35.8238 20.3812C35.7731 20.3851 35.7222 20.3851 35.6716 20.3812C35.6587 20.3826 35.6457 20.3805 35.6339 20.3751C35.6221 20.3697 35.612 20.3612 35.6046 20.3506C35.5972 20.3399 35.5929 20.3275 35.592 20.3146C35.5911 20.3016 35.5937 20.2887 35.5995 20.2771C35.5949 20.2479 35.5949 20.2182 35.5995 20.189L36.1601 19.1399C36.1929 19.0859 36.2305 19.035 36.2723 18.9877C36.3509 18.8908 36.4618 18.8254 36.5846 18.8035C36.8487 18.7445 37.1162 18.7018 37.3855 18.6753L37.9621 18.5952Z" fill="#A87C2D"/>
<path fill-rule="evenodd" clip-rule="evenodd" d="M41.8468 23.593C41.8026 23.6572 41.7625 23.7241 41.7266 23.7932C41.2922 24.5705 40.7532 25.2846 40.1248 25.9155C39.5149 26.5556 38.8444 27.1349 38.1226 27.6455C37.7782 27.8858 37.4499 28.142 37.0895 28.3582L36.9533 28.4303C36.9533 28.4303 36.9533 28.4303 36.9053 28.4303L36.9533 28.3503L37.1856 28.142C37.7782 27.6535 38.3549 27.1409 38.9235 26.6203C39.1237 26.4441 39.316 26.2439 39.5002 26.0517C40.0697 25.4639 40.6045 24.8436 41.1019 24.1937C41.2381 24.0095 41.3662 23.8172 41.4944 23.633C41.5049 23.6077 41.5104 23.5804 41.5104 23.5529C41.5104 23.5254 41.5049 23.4982 41.4944 23.4728L41.2941 23.3447L40.8777 23.0724C40.7117 22.9597 40.5848 22.7982 40.5145 22.6103C40.4442 22.4223 40.434 22.2172 40.4852 22.0232C40.5674 21.6221 40.7749 21.2575 41.0779 20.9821C41.1697 20.8959 41.279 20.8303 41.3983 20.7899C41.4948 20.7491 41.6024 20.7428 41.703 20.7719C41.8036 20.8011 41.8911 20.864 41.9509 20.95C42.0144 21.0317 42.0632 21.1239 42.095 21.2224C42.1842 21.5014 42.2142 21.796 42.1831 22.0873C42.1728 22.2947 42.146 22.5008 42.103 22.704C42.0955 22.7437 42.0955 22.7844 42.103 22.8241C42.0926 22.8526 42.0926 22.8838 42.103 22.9122L42.1991 22.9843C42.2587 23.0252 42.3149 23.0708 42.3673 23.1205C42.45 23.1857 42.5126 23.2729 42.548 23.372C42.5834 23.4711 42.5902 23.5783 42.5676 23.6811C42.5676 23.8012 42.5115 23.9214 42.4875 24.0415C42.4634 24.1616 42.4314 24.1376 42.4074 24.1296L42.3353 24.0815C42.2099 23.8851 42.0432 23.7184 41.8468 23.593ZM41.9108 22.4957C41.9218 22.3155 41.9056 22.1346 41.8628 21.9592C41.8344 21.848 41.7825 21.7442 41.7106 21.6548C41.6436 21.5751 41.5505 21.5218 41.4479 21.5042C41.3453 21.4866 41.2397 21.5059 41.15 21.5587C41.0872 21.5951 41.0304 21.641 40.9818 21.6948C40.959 21.7165 40.9409 21.7426 40.9285 21.7715C40.9161 21.8005 40.9097 21.8316 40.9097 21.8631C40.9097 21.8945 40.9161 21.9256 40.9285 21.9546C40.9409 21.9835 40.959 22.0096 40.9818 22.0313C41.0485 22.1113 41.1237 22.1837 41.206 22.2475C41.3839 22.3914 41.5773 22.515 41.7827 22.6159C41.7912 22.6208 41.8009 22.6234 41.8107 22.6234C41.8206 22.6234 41.8302 22.6208 41.8387 22.6159C41.8387 22.6159 41.8868 22.6159 41.8948 22.6159L41.9108 22.4957Z" fill="#A87C2D"/>
<path fill-rule="evenodd" clip-rule="evenodd" d="M17.1067 35.9668C17.1197 35.8014 17.1492 35.6378 17.1947 35.4783L17.2428 35.3661C17.2672 35.3132 17.3095 35.2706 17.3622 35.2457C17.4149 35.2208 17.4747 35.2152 17.5311 35.23C17.7148 35.2765 17.8867 35.3611 18.0357 35.4783C18.2422 35.6523 18.4135 35.8644 18.5402 36.103C18.658 36.336 18.7597 36.5768 18.8446 36.8237C18.9087 37.032 18.9727 37.2402 19.0288 37.4485V37.5446C19.0288 37.5446 19.0849 37.6086 19.0929 37.5926C19.0978 37.5797 19.0978 37.5655 19.0929 37.5526C19.0929 37.3764 19.1489 37.2002 19.1729 37.032L19.2931 36.0709C19.3261 35.832 19.3879 35.5981 19.4773 35.3741C19.5475 35.2113 19.642 35.0601 19.7576 34.9256C19.7942 34.8711 19.8437 34.8265 19.9017 34.7956C19.9596 34.7647 20.0243 34.7485 20.09 34.7485C20.1556 34.7485 20.2203 34.7647 20.2783 34.7956C20.3362 34.8265 20.3857 34.8711 20.4223 34.9256C20.517 35.024 20.6053 35.1284 20.6866 35.238C20.7061 35.2626 20.7204 35.2909 20.7287 35.3211C20.737 35.3514 20.739 35.3831 20.7347 35.4142C20.7224 35.5792 20.6845 35.7413 20.6226 35.8947C20.6166 35.903 20.6088 35.9097 20.5998 35.9144C20.5907 35.919 20.5807 35.9214 20.5705 35.9214C20.5603 35.9214 20.5503 35.919 20.5412 35.9144C20.5322 35.9097 20.5244 35.903 20.5184 35.8947L20.3182 35.6545C20.2563 35.5831 20.1798 35.5258 20.094 35.4863C20.0492 35.4594 19.998 35.4453 19.9458 35.4453C19.8936 35.4453 19.8424 35.4594 19.7976 35.4863C19.7048 35.5711 19.6358 35.6788 19.5974 35.7986C19.5516 35.9486 19.5142 36.101 19.4853 36.2551C19.4372 36.5675 19.3972 36.8958 19.3572 37.2082C19.321 37.5519 19.2567 37.8921 19.1649 38.2253C19.1297 38.3452 19.0757 38.4588 19.0048 38.5617C19.0048 38.5617 19.0048 38.5617 18.9567 38.5617C18.9413 38.5679 18.9241 38.5679 18.9087 38.5617C18.8879 38.5126 18.8718 38.4616 18.8606 38.4095L18.6684 37.7528C18.5804 37.4798 18.4761 37.2124 18.356 36.9519C18.2933 36.7963 18.2127 36.6484 18.1158 36.5114C18.0677 36.4473 18.0357 36.4393 17.9716 36.5114L17.9236 36.5595C17.8948 36.5677 17.8642 36.5677 17.8355 36.5595H17.7554L17.1307 36.151C17.108 36.1266 17.0935 36.0957 17.0892 36.0627C17.0849 36.0297 17.091 35.9962 17.1067 35.9668Z" fill="#A87C2D"/>
<path fill-rule="evenodd" clip-rule="evenodd" d="M20.0543 22.5196C20.0509 22.4984 20.0509 22.4768 20.0543 22.4556L20.2626 21.975C20.3305 21.8207 20.4454 21.6918 20.5909 21.6066C20.66 21.5566 20.7322 21.5111 20.8072 21.4705C21.4799 21.078 22.1527 20.6696 22.8334 20.3092C23.5142 19.9488 24.3711 19.5083 25.14 19.0598C25.311 18.961 25.4906 18.8779 25.6766 18.8115C25.6766 18.8115 25.7406 18.8115 25.7406 18.8676C25.745 18.8968 25.745 18.9265 25.7406 18.9557L25.5965 19.3722C25.5751 19.4311 25.5322 19.4797 25.4764 19.5083L25.3322 19.5804C23.7304 20.3813 22.2087 21.2863 20.671 22.1833C20.5028 22.2794 20.3427 22.3995 20.1825 22.5116L20.0543 22.5196Z" fill="#A87C2D"/>
<path fill-rule="evenodd" clip-rule="evenodd" d="M34.1493 42.2297H34.0052C33.7347 42.241 33.4662 42.2813 33.2043 42.3498C33.1131 42.3762 33.0246 42.411 32.94 42.4539C32.6837 42.5741 32.7157 42.5981 32.8118 42.8063C33.0688 43.3412 33.283 43.8955 33.4526 44.4642C33.5634 44.7985 33.6464 45.1413 33.7008 45.4893C33.7276 45.7556 33.7276 46.0239 33.7008 46.2902C33.6884 46.3394 33.6724 46.3875 33.6528 46.4343C33.6453 46.4379 33.6371 46.4397 33.6288 46.4397C33.6204 46.4397 33.6122 46.4379 33.6047 46.4343C33.6047 46.3542 33.6047 46.2742 33.5567 46.1941C33.4273 45.4016 33.2041 44.6273 32.8919 43.8875C32.8038 43.6873 32.7158 43.4871 32.6357 43.2868C32.5556 43.0866 32.5476 43.0306 32.5075 42.9024C32.4715 42.7823 32.4715 42.6542 32.5075 42.534C32.5536 42.3571 32.6451 42.1954 32.7729 42.0647C32.9007 41.9341 33.0605 41.8391 33.2363 41.7892C33.3462 41.7498 33.4586 41.7177 33.5727 41.6931C33.5641 41.6618 33.5506 41.632 33.5327 41.605C33.4506 41.5235 33.3483 41.4654 33.2363 41.4368C33.1807 41.4193 33.121 41.4191 33.0652 41.4363C33.0094 41.4535 32.9602 41.4871 32.924 41.5329C32.8599 41.605 32.8038 41.6931 32.7398 41.7731C32.7398 41.7731 32.7398 41.7732 32.7398 41.7331C32.7773 41.4769 32.8793 41.2344 33.0361 41.0283C33.0892 40.9486 33.1606 40.8827 33.2443 40.8361C33.2901 40.8123 33.3409 40.7998 33.3925 40.7998C33.4441 40.7998 33.4949 40.8123 33.5407 40.8361C33.6442 40.8851 33.7411 40.947 33.829 41.0203C34.01 41.1624 34.1668 41.3328 34.2935 41.5249C34.3091 41.5574 34.3172 41.5929 34.3172 41.629C34.3172 41.665 34.3091 41.7006 34.2935 41.7331C34.2374 41.9093 34.1974 42.0615 34.1493 42.2297Z" fill="#A87C2D"/>
<path fill-rule="evenodd" clip-rule="evenodd" d="M24.2432 21.999C24.2658 22.0028 24.2863 22.0146 24.301 22.0323C24.3157 22.0499 24.3236 22.0722 24.3233 22.0951C24.3168 22.2528 24.2899 22.4089 24.2432 22.5597L24.0029 23.2324C23.8988 23.4887 23.7867 23.753 23.6905 24.0333C23.5991 24.2444 23.5423 24.4688 23.5224 24.698C23.4993 24.8842 23.5298 25.0732 23.6105 25.2427C23.6458 25.3248 23.7008 25.397 23.7706 25.4529C23.8405 25.5088 23.923 25.5466 24.0109 25.563H24.099C24.1359 25.5623 24.1718 25.5515 24.2029 25.5317C24.234 25.512 24.259 25.4839 24.2752 25.4508C24.3313 25.3387 24.3713 25.2186 24.4274 25.1065C24.4549 25.0181 24.5045 24.9381 24.5715 24.8742H24.6276C24.6313 24.9169 24.6313 24.9597 24.6276 25.0024C24.5643 25.3177 24.4564 25.6224 24.3072 25.9074C24.243 26.0365 24.1562 26.1531 24.051 26.2517C24.0038 26.2961 23.9529 26.3363 23.8988 26.3719C23.8052 26.4311 23.6937 26.4555 23.5839 26.4408C23.4741 26.4262 23.373 26.3735 23.2981 26.2918C23.1496 26.1444 23.0515 25.9538 23.0178 25.7472C22.9498 25.4548 22.9498 25.1506 23.0178 24.8582C23.0951 24.5542 23.1969 24.2569 23.3221 23.9692C23.5784 23.3445 23.8507 22.7278 24.123 22.1031C24.1588 22.0638 24.1991 22.0288 24.2432 21.999Z" fill="#A87C2D"/>
<path fill-rule="evenodd" clip-rule="evenodd" d="M37.1935 22.3438C37.2154 22.3477 37.2351 22.3597 37.2484 22.3776C37.2618 22.3954 37.2679 22.4177 37.2656 22.4399C37.2618 22.5972 37.2376 22.7533 37.1935 22.9043C37.1054 23.1286 37.0253 23.3529 36.9452 23.5771C36.8651 23.8013 36.737 24.0817 36.6409 24.3299C36.5643 24.5239 36.508 24.7251 36.4727 24.9306C36.4446 25.0734 36.4446 25.2203 36.4727 25.3631C36.4954 25.4554 36.5305 25.5443 36.5768 25.6274C36.6169 25.7008 36.6744 25.7632 36.7442 25.8093C36.814 25.8553 36.894 25.8836 36.9772 25.8917C37.0228 25.8992 37.0695 25.8924 37.1111 25.8723C37.1527 25.8523 37.187 25.8199 37.2095 25.7795C37.2495 25.6914 37.2816 25.6033 37.3216 25.5233C37.3617 25.4432 37.4097 25.3311 37.4578 25.243C37.5058 25.1549 37.5379 25.1629 37.5619 25.1869C37.5717 25.2039 37.5769 25.2233 37.5769 25.243C37.5769 25.2626 37.5717 25.2819 37.5619 25.299C37.5619 25.3791 37.5619 25.4592 37.5619 25.5393C37.499 25.7829 37.4104 26.0192 37.2976 26.2441C37.2253 26.3929 37.1246 26.5262 37.0013 26.6365C36.9389 26.6919 36.8687 26.7377 36.793 26.7726C36.7062 26.8117 36.6094 26.8227 36.5161 26.804C36.4227 26.7853 36.3375 26.738 36.2725 26.6685C36.1259 26.5185 36.0258 26.3294 35.9841 26.1239C35.9252 25.826 35.939 25.5184 36.0242 25.2269C36.0934 24.9339 36.1871 24.6472 36.3045 24.37C36.5688 23.7373 36.8411 23.1046 37.1054 22.4719C37.1374 22.4238 37.1694 22.3838 37.1935 22.3438Z" fill="#A87C2D"/>
<path fill-rule="evenodd" clip-rule="evenodd" d="M18.6608 31.0415C18.6596 30.7994 18.6975 30.5587 18.773 30.3287C18.8691 30.0003 18.9892 29.6799 19.1173 29.3596C19.3416 28.839 19.5658 28.3104 19.7981 27.7578C19.8226 27.7019 19.8521 27.6483 19.8862 27.5977C19.8862 27.5977 19.9262 27.5977 19.9423 27.5977C19.9628 27.7008 19.9628 27.8069 19.9423 27.91C19.9101 28.0719 19.8618 28.2302 19.7981 28.3825L19.3896 29.4317C19.2999 29.6409 19.2302 29.8581 19.1814 30.0804C19.1345 30.2855 19.1484 30.4998 19.2215 30.6971C19.2483 30.7878 19.2965 30.8707 19.362 30.939C19.4275 31.0073 19.5084 31.0589 19.5979 31.0895H19.686C19.7336 31.0981 19.7828 31.091 19.8261 31.0694C19.8694 31.0477 19.9045 31.0126 19.9262 30.9694C19.9663 30.8893 19.9983 30.8012 20.0384 30.7211C20.076 30.6111 20.1271 30.5062 20.1905 30.4087C20.1905 30.4087 20.2546 30.3607 20.2626 30.4087C20.2725 30.4345 20.2725 30.4631 20.2626 30.4889C20.2703 30.5795 20.2703 30.6705 20.2626 30.7611C20.2001 30.9923 20.117 31.2175 20.0143 31.4339C19.9361 31.5927 19.8304 31.7364 19.702 31.8583C19.6339 31.924 19.5517 31.9733 19.4617 32.0025C19.3831 32.0315 19.2978 32.0379 19.2157 32.0209C19.1336 32.0039 19.0579 31.9642 18.9972 31.9064C18.8659 31.8021 18.7707 31.6593 18.7249 31.498C18.6745 31.3513 18.6527 31.1963 18.6608 31.0415Z" fill="#A87C2D"/>
<path fill-rule="evenodd" clip-rule="evenodd" d="M30.6498 30.8249C30.645 30.5694 30.6829 30.315 30.762 30.072C30.8661 29.7757 30.9622 29.4794 31.0823 29.1911C31.3066 28.6385 31.5548 28.0858 31.7951 27.5332C31.8196 27.4773 31.8491 27.4237 31.8832 27.373H31.9233C31.931 27.4342 31.931 27.4961 31.9233 27.5572C31.8933 27.7517 31.8423 27.9424 31.7711 28.1259C31.6349 28.4783 31.4988 28.8307 31.3546 29.175C31.2786 29.3685 31.2144 29.5664 31.1624 29.7677C31.1263 29.9312 31.1263 30.1007 31.1624 30.2642C31.1779 30.3544 31.202 30.443 31.2345 30.5285C31.2679 30.6115 31.32 30.6857 31.3866 30.7454C31.4533 30.8051 31.5328 30.8488 31.6189 30.8729C31.6484 30.8846 31.6798 30.8903 31.7115 30.8898C31.7431 30.8893 31.7744 30.8824 31.8034 30.8698C31.8324 30.8571 31.8587 30.8389 31.8806 30.8161C31.9025 30.7932 31.9198 30.7663 31.9313 30.7368C31.9873 30.6167 32.0354 30.4885 32.0914 30.3603C32.1161 30.2925 32.1574 30.232 32.2116 30.1842H32.2676C32.2875 30.2549 32.2875 30.3297 32.2676 30.4004C32.2055 30.7059 32.0975 31.0002 31.9473 31.2734C31.869 31.409 31.7688 31.5307 31.6509 31.6338C31.5879 31.6902 31.5145 31.7337 31.4347 31.7619C31.3561 31.7857 31.2727 31.7886 31.1926 31.7704C31.1126 31.7521 31.0387 31.7133 30.9782 31.6578C30.7995 31.4917 30.686 31.2674 30.6578 31.0251C30.6519 30.9585 30.6492 30.8917 30.6498 30.8249Z" fill="#A87C2D"/>
<path fill-rule="evenodd" clip-rule="evenodd" d="M41.6782 28.8069C41.6684 28.5348 41.7091 28.2632 41.7983 28.006C41.9104 27.6376 42.0466 27.2772 42.1908 26.9248L42.8154 25.4912C42.8397 25.4335 42.872 25.3796 42.9115 25.3311H42.9596C42.9636 25.3924 42.9636 25.4539 42.9596 25.5152C42.9342 25.7012 42.8885 25.8838 42.8235 26.0598C42.6873 26.3962 42.5511 26.7326 42.423 27.069C42.3328 27.2823 42.2578 27.5018 42.1988 27.7257C42.171 27.8874 42.171 28.0526 42.1988 28.2142C42.2143 28.307 42.2384 28.3982 42.2708 28.4866C42.3043 28.5695 42.3563 28.6437 42.423 28.7034C42.4896 28.7632 42.5691 28.8068 42.6553 28.8309C42.6847 28.8426 42.7162 28.8483 42.7478 28.8478C42.7795 28.8473 42.8107 28.8405 42.8398 28.8278C42.8688 28.8152 42.895 28.7969 42.917 28.774C42.9389 28.7512 42.9561 28.7243 42.9676 28.6948C42.9676 28.6147 43.0397 28.5266 43.0797 28.4385C43.1198 28.3504 43.1758 28.2543 43.2239 28.1582C43.2719 28.0621 43.296 28.1181 43.304 28.1582C43.3084 28.1766 43.3084 28.1958 43.304 28.2142C43.3119 28.2861 43.3119 28.3586 43.304 28.4305C43.236 28.709 43.1337 28.978 42.9996 29.2314C42.9273 29.3689 42.8326 29.4934 42.7193 29.5998C42.663 29.6471 42.6012 29.6874 42.5351 29.7199C42.4447 29.7609 42.3438 29.773 42.2463 29.7543C42.1488 29.7357 42.0594 29.6873 41.9905 29.6158C41.8301 29.4492 41.7264 29.2362 41.6942 29.0071C41.6847 28.9408 41.6793 28.8739 41.6782 28.8069Z" fill="#A87C2D"/>
<path fill-rule="evenodd" clip-rule="evenodd" d="M29.5287 22.1832C29.5242 21.9114 29.5647 21.6408 29.6488 21.3823C29.7526 21.0445 29.8756 20.713 30.0172 20.3892C30.2254 19.8846 30.4497 19.3801 30.6659 18.8755C30.6932 18.8194 30.7253 18.7658 30.762 18.7153H30.8101C30.8141 18.7793 30.8141 18.8435 30.8101 18.9075C30.7846 19.0909 30.7389 19.2708 30.6739 19.4441C30.5298 19.8045 30.3936 20.1649 30.2495 20.5173C30.1674 20.7094 30.1004 20.9075 30.0492 21.11C30.0213 21.2743 30.0213 21.4422 30.0492 21.6065C30.0664 21.7085 30.096 21.808 30.1373 21.9029C30.1712 21.9742 30.2192 22.038 30.2784 22.0903C30.3376 22.1426 30.4067 22.1824 30.4817 22.2072H30.6018C30.6449 22.2124 30.6884 22.2035 30.726 22.1819C30.7635 22.1602 30.793 22.127 30.8101 22.0871C30.8661 21.967 30.9142 21.8468 30.9703 21.7187C30.9974 21.6408 31.0411 21.5697 31.0984 21.5104C31.119 21.5024 31.1419 21.5024 31.1625 21.5104C31.1651 21.529 31.1651 21.5479 31.1625 21.5665C31.1663 21.6305 31.1663 21.6947 31.1625 21.7587C31.0964 22.0355 30.9997 22.3041 30.8741 22.5596C30.7997 22.6981 30.7053 22.825 30.5938 22.936C30.5405 22.9857 30.4814 23.0288 30.4176 23.0641C30.3259 23.1145 30.2198 23.1325 30.1166 23.115C30.0134 23.0976 29.9191 23.0458 29.849 22.968C29.6885 22.8015 29.5848 22.5884 29.5527 22.3594C29.5414 22.3011 29.5334 22.2423 29.5287 22.1832Z" fill="#A87C2D"/>
<path fill-rule="evenodd" clip-rule="evenodd" d="M26.6854 43.9674C26.7053 43.7151 26.751 43.4655 26.8216 43.2225C26.9444 42.8541 27.0805 42.4937 27.23 42.1413C27.4223 41.6848 27.6225 41.2203 27.8227 40.7718C27.8494 40.7037 27.8844 40.6392 27.9268 40.5796L27.9749 40.6196C27.9786 40.6285 27.9805 40.6381 27.9805 40.6477C27.9805 40.6573 27.9786 40.6668 27.9749 40.6757C27.9711 40.8304 27.9468 40.9839 27.9028 41.1322C27.8147 41.3565 27.7346 41.5887 27.6465 41.805C27.5584 42.0212 27.4463 42.3095 27.3502 42.5578C27.2626 42.7702 27.206 42.994 27.182 43.2225C27.1631 43.3987 27.185 43.5768 27.2461 43.7431C27.2802 43.8366 27.338 43.9197 27.4138 43.9842C27.4896 44.0488 27.5808 44.0927 27.6785 44.1115C27.7287 44.1267 27.7827 44.1238 27.831 44.1033C27.8793 44.0828 27.9188 44.046 27.9428 43.9994C27.9909 43.8873 28.0309 43.7671 28.087 43.655C28.1124 43.5656 28.1623 43.4851 28.2312 43.4227H28.2872C28.2872 43.4227 28.2872 43.4227 28.2872 43.4788C28.295 43.5212 28.295 43.5646 28.2872 43.607C28.2234 43.901 28.1239 44.1861 27.9909 44.4559C27.9061 44.6216 27.789 44.7687 27.6465 44.8884C27.5589 44.9636 27.4493 45.0085 27.3341 45.0165C27.2661 45.0195 27.1981 45.0082 27.1347 44.9834C27.0713 44.9586 27.0137 44.9207 26.9657 44.8723C26.8361 44.7483 26.7444 44.59 26.7015 44.4159C26.6767 44.2677 26.6713 44.1169 26.6854 43.9674Z" fill="#A87C2D"/>
<path fill-rule="evenodd" clip-rule="evenodd" d="M38.3462 43.9836C38.3406 43.7118 38.3813 43.441 38.4663 43.1828C38.5768 42.8232 38.7079 42.4702 38.8588 42.1256L39.4835 40.668C39.5125 40.6128 39.5446 40.5594 39.5796 40.5078H39.6276C39.6316 40.5691 39.6316 40.6307 39.6276 40.692C39.6043 40.8792 39.5558 41.0624 39.4835 41.2366C39.3553 41.573 39.2192 41.9174 39.083 42.2537C38.999 42.4658 38.9268 42.6824 38.8668 42.9025C38.8387 43.0668 38.8387 43.2347 38.8668 43.399C38.883 43.5332 38.9295 43.6619 39.0029 43.7754C39.0507 43.8501 39.1173 43.9109 39.196 43.9517C39.2748 43.9925 39.3629 44.0118 39.4514 44.0077C39.4836 44.0091 39.5156 44.0016 39.5438 43.986C39.5721 43.9705 39.5955 43.9475 39.6116 43.9196C39.6597 43.8234 39.6997 43.7354 39.7398 43.6393C39.7775 43.5318 39.8286 43.4296 39.8919 43.3349C39.8919 43.3349 39.932 43.3349 39.948 43.3349C39.964 43.3349 40.004 43.3349 40.004 43.399V43.4551V43.6153C39.9379 43.8921 39.8412 44.1607 39.7157 44.4161C39.6435 44.5561 39.5488 44.6832 39.4354 44.7925C39.3881 44.8344 39.3372 44.8719 39.2832 44.9047C39.1896 44.9638 39.0782 44.9882 38.9684 44.9736C38.8586 44.959 38.7574 44.9062 38.6826 44.8246C38.5272 44.6554 38.4267 44.4433 38.3943 44.2159C38.3728 44.1397 38.3567 44.0621 38.3462 43.9836Z" fill="#A87C2D"/>
<path fill-rule="evenodd" clip-rule="evenodd" d="M46.9717 27.1009C46.981 26.8703 47.0186 26.6416 47.0838 26.4202C47.1959 26.0758 47.3241 25.7314 47.4602 25.3951C47.6765 24.8905 47.9007 24.3859 48.1169 23.8734C48.1364 23.8137 48.1725 23.7609 48.2211 23.7212H48.2771C48.2849 23.7609 48.2849 23.8017 48.2771 23.8413C48.264 23.9988 48.2345 24.1545 48.189 24.3058L47.9488 24.9466C47.8527 25.2029 47.7405 25.4511 47.6444 25.7475C47.5906 25.8916 47.5452 26.0386 47.5083 26.1879C47.4454 26.4211 47.4594 26.6682 47.5483 26.8927C47.5789 26.9822 47.6305 27.0631 47.6988 27.1286C47.7671 27.1941 47.8501 27.2423 47.9408 27.2691C47.9702 27.2808 48.0016 27.2865 48.0333 27.286C48.065 27.2854 48.0962 27.2786 48.1252 27.266C48.1543 27.2533 48.1805 27.2351 48.2025 27.2123C48.2244 27.1894 48.2416 27.1625 48.2531 27.133C48.3092 27.0209 48.3492 26.9087 48.3973 26.7886C48.4242 26.7088 48.4711 26.6371 48.5334 26.5804H48.5895C48.5895 26.5804 48.5895 26.6204 48.5895 26.6445C48.5895 26.6685 48.5895 26.7726 48.5895 26.8286C48.5205 27.1068 48.4183 27.3757 48.2851 27.6295C48.2001 27.7859 48.0859 27.9246 47.9488 28.038C47.8694 28.1101 47.7675 28.1525 47.6604 28.1581C47.5886 28.163 47.5165 28.1527 47.4489 28.1279C47.3812 28.103 47.3196 28.0642 47.268 28.0139C47.1087 27.8434 47.0053 27.6282 46.9717 27.3973C46.9797 27.3252 46.9797 27.205 46.9717 27.1009Z" fill="#A87C2D"/>
<path fill-rule="evenodd" clip-rule="evenodd" d="M34.2939 33.0918V33.0835L34.3022 33.1083L34.2939 33.0918Z" fill="#A87C2D"/>
</svg>
